# xmcd
#
# Track frame offsets: 
#        150
#        20871
#        36184
#        55738
#        76345
#        91630
#        112822
#        124213
#        141274
#        157366
#        170282
#        183902
#
# Disc length: 2736 seconds
#
# Revision: 0
# Processed by: cddbd v1.5.2PL0 Copyright (c) Steve Scherf et al.
# Submitted via: ExactAudioCopyFreeDBPlugin 1.0
#
DISCID=990aae0c
DTITLE=Isla Grant - Early memories [Disc 3]
DYEAR=1900
DGENRE=Folk
TTITLE0=An Angel in Disguise
TTITLE1=Circle of Gold
TTITLE2=Young Love
TTITLE3=Fields of Athenry
TTITLE4=This Was before I Met you
TTITLE5=Yellow Roses
TTITLE6=Special To Me
TTITLE7=Lion In The Winter
TTITLE8=Clock in the Tower
TTITLE9=My World Revolves Around You
TTITLE10=Love All Over
TTITLE11=After All These Years
EXTD=
EXTT0=
EXTT1=
EXTT2=
EXTT3=
EXTT4=
EXTT5=
EXTT6=
EXTT7=
EXTT8=
EXTT9=
EXTT10=
EXTT11=
PLAYORDER=
